<svg viewBox="0 0 540 400" xmlns="http://www.w3.org/2000/svg" font-family="-apple-system, 'Segoe UI', sans-serif">
<defs>
<marker id="arrK" markerWidth="9" markerHeight="9" refX="7" refY="4.5" orient="auto"><path d="M0,0 L9,4.5 L0,9 z" fill="#37352f"/></marker>
<marker id="arrB" markerWidth="9" markerHeight="9" refX="7" refY="4.5" orient="auto"><path d="M0,0 L9,4.5 L0,9 z" fill="#2383e2"/></marker>
<marker id="arrR" markerWidth="9" markerHeight="9" refX="7" refY="4.5" orient="auto"><path d="M0,0 L9,4.5 L0,9 z" fill="#eb5757"/></marker>
</defs>
<line x1="70" y1="330" x2="70" y2="40" stroke="#37352f" stroke-width="1.8" marker-end="url(#arrK)" stroke-linecap="round"/>
<line x1="70" y1="330" x2="480" y2="330" stroke="#37352f" stroke-width="1.8" marker-end="url(#arrK)" stroke-linecap="round"/>
<text x="70" y="28" text-anchor="start" font-size="15" fill="#37352f" font-weight="600" style="">Price (P)</text>
<text x="480" y="376" text-anchor="end" font-size="15" fill="#37352f" font-weight="600" style="">Quantity (Q)</text>
<text x="62" y="348" text-anchor="end" font-size="14" fill="#37352f" font-weight="400" style="">0</text>
<line x1="110" y1="80" x2="440" y2="300" stroke="#37352f" stroke-width="2.2" stroke-linecap="round"/><text x="448" y="305" text-anchor="start" font-size="16" fill="#37352f" font-weight="600" style="">D</text><line x1="110" y1="300" x2="440" y2="80" stroke="#37352f" stroke-width="2.2" stroke-linecap="round"/><text x="448" y="85" text-anchor="start" font-size="16" fill="#37352f" font-weight="600" style="">S</text><line x1="70" y1="190" x2="275" y2="190" stroke="#9b9a97" stroke-width="1.4" stroke-dasharray="5 4" stroke-linecap="round"/><line x1="275" y1="190" x2="275" y2="330" stroke="#9b9a97" stroke-width="1.4" stroke-dasharray="5 4" stroke-linecap="round"/><text x="62" y="195" text-anchor="end" font-size="14" fill="#37352f" font-weight="400" style="">Pe</text><text x="275" y="350" text-anchor="middle" font-size="14" fill="#37352f" font-weight="400" style="">Qe</text><circle cx="275" cy="190" r="4" fill="#37352f"/><text x="283" y="182" text-anchor="start" font-size="14" fill="#37352f" font-weight="600" style="">E</text><line x1="70" y1="255" x2="460" y2="255" stroke="#2383e2" stroke-width="2.2" stroke-linecap="round"/><text x="466" y="260" text-anchor="start" font-size="15" fill="#2383e2" font-weight="600" style="">P max</text><line x1="178" y1="255" x2="178" y2="330" stroke="#9b9a97" stroke-width="1.4" stroke-dasharray="5 4" stroke-linecap="round"/><line x1="372" y1="255" x2="372" y2="330" stroke="#9b9a97" stroke-width="1.4" stroke-dasharray="5 4" stroke-linecap="round"/><text x="178" y="350" text-anchor="middle" font-size="14" fill="#37352f" font-weight="400" style="">Qs</text><text x="372" y="350" text-anchor="middle" font-size="14" fill="#37352f" font-weight="400" style="">Qd</text><line x1="182" y1="312" x2="368" y2="312" stroke="#eb5757" stroke-width="1.8" marker-end="url(#arrR)" stroke-linecap="round"/><line x1="368" y1="312" x2="182" y2="312" stroke="#eb5757" stroke-width="1.8" marker-end="url(#arrR)" stroke-linecap="round"/><text x="275" y="304" text-anchor="middle" font-size="13" fill="#eb5757" font-weight="600" style="">Shortage</text>
</svg>