<svg viewBox="0 0 540 400" xmlns="http://www.w3.org/2000/svg" font-family="-apple-system, 'Segoe UI', sans-serif">
<defs>
<marker id="arrK" markerWidth="9" markerHeight="9" refX="7" refY="4.5" orient="auto"><path d="M0,0 L9,4.5 L0,9 z" fill="#37352f"/></marker>
<marker id="arrB" markerWidth="9" markerHeight="9" refX="7" refY="4.5" orient="auto"><path d="M0,0 L9,4.5 L0,9 z" fill="#2383e2"/></marker>
<marker id="arrR" markerWidth="9" markerHeight="9" refX="7" refY="4.5" orient="auto"><path d="M0,0 L9,4.5 L0,9 z" fill="#eb5757"/></marker>
</defs>
<line x1="70" y1="330" x2="70" y2="40" stroke="#37352f" stroke-width="1.8" marker-end="url(#arrK)" stroke-linecap="round"/>
<line x1="70" y1="330" x2="480" y2="330" stroke="#37352f" stroke-width="1.8" marker-end="url(#arrK)" stroke-linecap="round"/>
<text x="70" y="28" text-anchor="start" font-size="15" fill="#37352f" font-weight="600" style="">Price (P)</text>
<text x="480" y="376" text-anchor="end" font-size="15" fill="#37352f" font-weight="600" style="">Quantity (Q)</text>
<text x="62" y="348" text-anchor="end" font-size="14" fill="#37352f" font-weight="400" style="">0</text>
<line x1="110" y1="80" x2="440" y2="300" stroke="#37352f" stroke-width="2.2" stroke-linecap="round"/><text x="448" y="305" text-anchor="start" font-size="16" fill="#37352f" font-weight="600" style="">D dom</text><line x1="110" y1="300" x2="440" y2="80" stroke="#37352f" stroke-width="2.2" stroke-linecap="round"/><text x="448" y="85" text-anchor="start" font-size="16" fill="#37352f" font-weight="600" style="">S dom</text><line x1="70" y1="280" x2="460" y2="280" stroke="#37352f" stroke-width="2.2" stroke-linecap="round"/><text x="466" y="285" text-anchor="start" font-size="15" fill="#37352f" font-weight="600" style="">Sw</text><line x1="70" y1="230" x2="460" y2="230" stroke="#2383e2" stroke-width="2.2" stroke-linecap="round"/><text x="466" y="235" text-anchor="start" font-size="15" fill="#2383e2" font-weight="600" style="">Sw + t</text><text x="62" y="285" text-anchor="end" font-size="14" fill="#37352f" font-weight="400" style="">Pw</text><text x="62" y="235" text-anchor="end" font-size="14" fill="#37352f" font-weight="400" style="">Pw+t</text><line x1="140" y1="280" x2="140" y2="330" stroke="#9b9a97" stroke-width="1.4" stroke-dasharray="5 4" stroke-linecap="round"/><line x1="215" y1="230" x2="215" y2="330" stroke="#9b9a97" stroke-width="1.4" stroke-dasharray="5 4" stroke-linecap="round"/><line x1="335" y1="230" x2="335" y2="330" stroke="#9b9a97" stroke-width="1.4" stroke-dasharray="5 4" stroke-linecap="round"/><line x1="410" y1="280" x2="410" y2="330" stroke="#9b9a97" stroke-width="1.4" stroke-dasharray="5 4" stroke-linecap="round"/><text x="140" y="350" text-anchor="middle" font-size="14" fill="#37352f" font-weight="400" style="">Q1</text><text x="215" y="350" text-anchor="middle" font-size="14" fill="#37352f" font-weight="400" style="">Q2</text><text x="335" y="350" text-anchor="middle" font-size="14" fill="#37352f" font-weight="400" style="">Q3</text><text x="410" y="350" text-anchor="middle" font-size="14" fill="#37352f" font-weight="400" style="">Q4</text><line x1="219" y1="218" x2="331" y2="218" stroke="#2383e2" stroke-width="1.8" marker-end="url(#arrR)" stroke-linecap="round"/><line x1="331" y1="218" x2="219" y2="218" stroke="#2383e2" stroke-width="1.8" marker-end="url(#arrR)" stroke-linecap="round"/><text x="275" y="210" text-anchor="middle" font-size="13" fill="#2383e2" font-weight="600" style="">Imports after tariff</text><line x1="144" y1="300" x2="406" y2="300" stroke="#eb5757" stroke-width="1.8" marker-end="url(#arrR)" stroke-linecap="round"/><line x1="406" y1="300" x2="144" y2="300" stroke="#eb5757" stroke-width="1.8" marker-end="url(#arrR)" stroke-linecap="round"/><text x="275" y="292" text-anchor="middle" font-size="13" fill="#eb5757" font-weight="600" style="">Imports before</text>
</svg>